<?xml version="1.0" encoding="iso-8859-1"?>
<!-- Generator: Adobe Illustrator 19.0.0, SVG Export Plug-In . SVG Version: 6.00 Build 0)  -->
<svg version="1.1" id="Capa_1" xmlns="http://www.w3.org/2000/svg" xmlns:xlink="http://www.w3.org/1999/xlink" x="0px" y="0px"
	 viewBox="0 0 463 463" style="enable-background:new 0 0 463 463; fill: #ffffff;" xml:space="preserve">
<path d="M463,286.124V271.5c0-0.059-0.008-0.117-0.009-0.176c-0.004-0.154-0.01-0.308-0.023-0.461
	c-0.009-0.11-0.022-0.218-0.036-0.326c-0.017-0.127-0.035-0.253-0.058-0.378c-0.023-0.129-0.051-0.256-0.081-0.382
	c-0.024-0.103-0.05-0.205-0.079-0.307c-0.039-0.138-0.082-0.274-0.128-0.409c-0.031-0.091-0.064-0.181-0.099-0.271
	c-0.052-0.135-0.108-0.268-0.168-0.4c-0.041-0.091-0.085-0.181-0.13-0.27c-0.061-0.121-0.125-0.24-0.192-0.357
	c-0.056-0.099-0.116-0.195-0.177-0.291c-0.064-0.101-0.13-0.2-0.199-0.298c-0.074-0.106-0.152-0.209-0.233-0.311
	c-0.065-0.083-0.132-0.165-0.201-0.245c-0.091-0.106-0.185-0.209-0.281-0.31c-0.07-0.073-0.141-0.144-0.213-0.214
	c-0.1-0.096-0.203-0.19-0.309-0.28c-0.083-0.071-0.167-0.14-0.254-0.208c-0.1-0.078-0.201-0.155-0.305-0.228
	c-0.106-0.075-0.215-0.146-0.325-0.216c-0.091-0.057-0.182-0.114-0.276-0.168c-0.134-0.077-0.271-0.147-0.409-0.215
	c-0.053-0.026-0.102-0.057-0.156-0.082L327,203.57V127.5c0-0.061-0.008-0.12-0.009-0.181c-0.004-0.162-0.01-0.323-0.025-0.484
	c-0.009-0.107-0.024-0.213-0.038-0.319c-0.017-0.13-0.035-0.26-0.059-0.388c-0.024-0.129-0.053-0.255-0.083-0.381
	c-0.025-0.104-0.05-0.208-0.08-0.311c-0.04-0.138-0.084-0.273-0.131-0.408c-0.032-0.091-0.064-0.183-0.1-0.273
	c-0.053-0.134-0.11-0.266-0.17-0.396c-0.042-0.091-0.085-0.182-0.131-0.271c-0.061-0.119-0.126-0.236-0.193-0.352
	c-0.057-0.099-0.116-0.196-0.177-0.292c-0.064-0.1-0.131-0.197-0.2-0.293c-0.075-0.105-0.152-0.209-0.232-0.31
	c-0.065-0.082-0.133-0.162-0.202-0.242c-0.091-0.106-0.184-0.209-0.282-0.31c-0.07-0.072-0.141-0.141-0.214-0.211
	c-0.101-0.096-0.204-0.191-0.311-0.282c-0.083-0.071-0.169-0.139-0.256-0.206c-0.101-0.078-0.201-0.156-0.307-0.229
	c-0.109-0.076-0.221-0.147-0.334-0.218c-0.089-0.056-0.178-0.112-0.27-0.164c-0.141-0.08-0.285-0.152-0.432-0.223
	c-0.055-0.026-0.105-0.058-0.161-0.083L239,82.671V71h80.5c3.033,0,5.769-1.827,6.929-4.63c1.161-2.803,0.52-6.028-1.625-8.173
	L306.107,39.5l18.697-18.697c2.145-2.145,2.786-5.371,1.625-8.173C325.269,9.827,322.533,8,319.5,8H239V7.5
	c0-4.142-3.357-7.5-7.5-7.5S224,3.358,224,7.5v75.171l-83.604,38.002c-0.056,0.025-0.107,0.057-0.161,0.083
	c-0.146,0.071-0.291,0.143-0.431,0.223c-0.092,0.052-0.181,0.109-0.27,0.164c-0.113,0.071-0.225,0.142-0.334,0.218
	c-0.105,0.074-0.206,0.151-0.307,0.229c-0.086,0.067-0.172,0.135-0.256,0.206c-0.107,0.091-0.209,0.186-0.31,0.282
	c-0.073,0.069-0.145,0.139-0.215,0.211c-0.097,0.101-0.19,0.204-0.281,0.309c-0.069,0.08-0.137,0.16-0.202,0.242
	c-0.08,0.102-0.157,0.205-0.232,0.31c-0.069,0.096-0.136,0.193-0.2,0.293c-0.062,0.096-0.12,0.193-0.177,0.292
	c-0.067,0.115-0.132,0.232-0.193,0.351c-0.046,0.09-0.089,0.181-0.131,0.272c-0.06,0.13-0.117,0.261-0.17,0.394
	c-0.036,0.091-0.068,0.182-0.1,0.274c-0.047,0.134-0.091,0.269-0.131,0.407c-0.03,0.103-0.055,0.207-0.08,0.311
	c-0.03,0.126-0.06,0.252-0.083,0.381c-0.024,0.129-0.042,0.258-0.059,0.388c-0.014,0.106-0.029,0.211-0.038,0.319
	c-0.015,0.16-0.02,0.322-0.024,0.483c-0.001,0.061-0.009,0.12-0.009,0.182v76.07L4.342,264.697
	c-0.054,0.025-0.103,0.056-0.156,0.082c-0.138,0.068-0.275,0.139-0.408,0.215c-0.094,0.054-0.185,0.111-0.276,0.168
	c-0.11,0.07-0.219,0.141-0.325,0.216c-0.104,0.074-0.205,0.15-0.305,0.228c-0.086,0.068-0.171,0.136-0.254,0.208
	c-0.106,0.091-0.208,0.184-0.309,0.28c-0.073,0.07-0.144,0.141-0.214,0.214c-0.097,0.101-0.191,0.204-0.281,0.31
	c-0.069,0.08-0.135,0.162-0.201,0.245c-0.08,0.102-0.158,0.205-0.233,0.311c-0.069,0.098-0.135,0.197-0.199,0.298
	c-0.061,0.096-0.12,0.193-0.177,0.291c-0.068,0.117-0.131,0.236-0.192,0.357c-0.045,0.09-0.089,0.18-0.13,0.271
	c-0.06,0.131-0.115,0.263-0.168,0.398c-0.035,0.09-0.068,0.18-0.099,0.272c-0.046,0.135-0.089,0.271-0.128,0.409
	c-0.029,0.102-0.054,0.204-0.079,0.307c-0.03,0.126-0.057,0.253-0.081,0.382c-0.023,0.125-0.041,0.251-0.058,0.378
	c-0.014,0.108-0.027,0.217-0.036,0.326c-0.013,0.153-0.02,0.306-0.023,0.461C0.008,271.383,0,271.441,0,271.5v14.624
	c-0.001,19.622,13.785,36.569,32,40.159V448H15.5c-4.143,0-7.5,3.358-7.5,7.5s3.357,7.5,7.5,7.5h152
	c1.554,0,3.069-0.483,4.337-1.381c34.616-24.538,51.494-56.933,59.663-84.366c8.169,27.433,25.047,59.828,59.663,84.366
	c1.268,0.898,2.783,1.381,4.337,1.381h152c4.143,0,7.5-3.358,7.5-7.5s-3.357-7.5-7.5-7.5H431V326.283
	C449.214,322.692,463,305.746,463,286.124z M448,286.124c0,13.264-9.693,24.579-22.068,25.759
	c-7.027,0.673-13.736-1.549-18.906-6.249C401.925,300.998,399,294.388,399,287.5V279h49V286.124z M231.5,312
	c-13.51,0-24.5-10.991-24.5-24.5V279h49v8.5C256,301.01,245.01,312,231.5,312z M231.5,95.738L284.876,120H178.125L231.5,95.738z
	 M243.868,200c-0.024,0-0.048,0-0.072,0h-0.161l27.865-55.73L299.365,200H243.868z M219.129,200h-49.031c-0.011,0-0.021,0-0.032,0
	h-6.431l27.865-55.73L219.365,200h-0.154C219.184,200,219.156,200,219.129,200z M283.635,135H312v56.73L283.635,135z M231.5,190.73
	L203.635,135h55.73L231.5,190.73z M151,191.73V135h28.365L151,191.73z M172.185,215h5.263l-45.231,49H96.8L172.185,215z
	 M197.861,215h11.178l-15.077,49H152.63L197.861,215z M224.731,215h6.737c0.009,0,0.017,0.001,0.026,0.001c0.002,0,0.004,0,0.006,0
	s0.004,0,0.006,0c0.009,0,0.017-0.001,0.026-0.001h6.737l15.077,49h-43.691L224.731,215z M269.039,264l-15.077-49h11.178l45.231,49
	H269.039z M330.783,264l-45.231-49h5.323c0.173,0.135,0.349,0.267,0.536,0.389L366.199,264H330.783z M393.724,264l-69.533-45.196
	L421.536,264H393.724z M138.808,218.805L69.277,264H41.464L138.808,218.805z M79,279h49v8.5c0,13.509-10.99,24.5-24.5,24.5
	S79,301.01,79,287.5V279z M111,326.277c10.031-1.937,18.718-7.678,24.5-15.661c5.782,7.982,14.469,13.724,24.5,15.661V447.5
	c0,0.169,0.014,0.334,0.025,0.5H111V326.277z M167.5,312c-13.51,0-24.5-10.991-24.5-24.5V279h49v8.5
	C192,301.01,181.01,312,167.5,312z M271,279h49v8.5c0,13.509-10.99,24.5-24.5,24.5S271,301.01,271,287.5V279z M303,447.5V326.277
	c10.031-1.937,18.718-7.678,24.5-15.661c5.782,7.982,14.469,13.724,24.5,15.661V448h-49.025C302.986,447.834,303,447.669,303,447.5z
	 M359.5,312c-13.51,0-24.5-10.991-24.5-24.5V279h49v8.5C384,301.01,373.01,312,359.5,312z M301.394,23l-11.197,11.197
	c-2.929,2.929-2.929,7.678,0,10.606L301.394,56H239V23H301.394z M15,286.124V279h49v8.5c0,6.887-2.925,13.497-8.025,18.134
	c-5.17,4.7-11.89,6.922-18.906,6.249C24.693,310.703,14.999,299.388,15,286.124z M47,326.253c7.057-1.369,13.679-4.623,19.065-9.52
	c2.037-1.852,3.857-3.9,5.445-6.102c5.782,7.975,14.465,13.71,24.49,15.646V448H47V326.253z M175,440.014V326.277
	c10.031-1.937,18.718-7.678,24.5-15.661c5.803,8.01,14.53,13.763,24.605,15.68c-0.064,0.393-0.105,0.793-0.105,1.204
	C224,344.591,220.246,400.111,175,440.014z M239,327.5c0-0.411-0.042-0.811-0.105-1.204c10.075-1.917,18.803-7.669,24.605-15.68
	c5.782,7.982,14.469,13.724,24.5,15.661v113.736C242.755,400.111,239,344.591,239,327.5z M367,448V326.277
	c10.025-1.935,18.707-7.671,24.49-15.646c1.588,2.201,3.408,4.25,5.445,6.102c5.386,4.897,12.01,8.158,19.065,9.527V448H367z"/>
<g>
</g>
<g>
</g>
<g>
</g>
<g>
</g>
<g>
</g>
<g>
</g>
<g>
</g>
<g>
</g>
<g>
</g>
<g>
</g>
<g>
</g>
<g>
</g>
<g>
</g>
<g>
</g>
<g>
</g>
</svg>
