<?xml version="1.0" encoding="iso-8859-1"?>
<!-- Generator: Adobe Illustrator 19.0.0, SVG Export Plug-In . SVG Version: 6.00 Build 0)  -->
<svg version="1.1" id="Capa_1" xmlns="http://www.w3.org/2000/svg" xmlns:xlink="http://www.w3.org/1999/xlink" x="0px" y="0px"
	 viewBox="0 0 457.479 457.479" style="enable-background:new 0 0 457.479 457.479;" xml:space="preserve">
<path id="XMLID_748_" d="M457.479,198.634v-41.566c0-3.751-2.327-7.11-5.84-8.427l-213.9-80.213V50.649h78.127
	c3.593,0,6.842-2.137,8.265-5.437s0.746-7.129-1.721-9.742l-9.58-10.146l9.58-10.146c2.467-2.613,3.143-6.442,1.721-9.742
	S319.46,0,315.867,0h-87.127c-4.971,0-9,4.029-9,9v59.427L5.84,148.641C2.327,149.958,0,153.316,0,157.068v41.566
	c0,16.956,11.711,31.228,27.468,35.154v178.224H9c-4.971,0-9,4.029-9,9v27.466c0,4.971,4.029,9,9,9h439.479c4.971,0,9-4.029,9-9
	v-27.466c0-4.971-4.029-9-9-9h-18.468V233.789C445.77,229.864,457.479,215.591,457.479,198.634z M237.739,18h57.251l-1.082,1.146
	c-3.275,3.468-3.275,8.889,0,12.357l1.082,1.146h-57.251V18z M439.479,163.305v12.23h-45.446h-64.025l-70.556-79.741
	L439.479,163.305z M91.228,234.858c10.991,0,20.854-4.92,27.502-12.674c6.649,7.754,16.512,12.674,27.503,12.674
	c10.991,0,20.853-4.92,27.501-12.674c6.648,7.754,16.511,12.674,27.502,12.674c2.312,0,4.573-0.218,6.765-0.633l12.506,36.015
	l-56.79,141.772H45.468v-178.35c7.207-1.904,13.541-5.978,18.257-11.479C70.374,229.939,80.237,234.858,91.228,234.858z
	 M73.004,198.634v-5.1h36.446v5.1c0,10.049-8.174,18.224-18.222,18.224C81.18,216.858,73.004,208.683,73.004,198.634z
	 M128.009,198.634v-5.1h36.446v5.1c0,10.049-8.174,18.224-18.222,18.224C136.184,216.858,128.009,208.683,128.009,198.634z
	 M183.015,198.634v-5.1h36.445v5.1c0,10.049-8.175,18.224-18.223,18.224S183.015,208.683,183.015,198.634z M229.512,296.17
	l40.225,115.843h-86.629L229.512,296.17z M224.371,226.489c1.575-1.31,3.036-2.75,4.369-4.305
	c6.648,7.754,16.511,12.674,27.502,12.674c10.99,0,20.854-4.921,27.503-12.674c6.648,7.753,16.512,12.674,27.502,12.674
	c10.991,0,20.854-4.92,27.502-12.674c6.649,7.754,16.512,12.674,27.503,12.674c10.99,0,20.853-4.921,27.501-12.674
	c4.716,5.5,11.05,9.575,18.257,11.479v178.35h-123.22L224.371,226.489z M238.019,198.634v-5.1h36.447v5.1
	c0,10.049-8.175,18.224-18.224,18.224S238.019,208.683,238.019,198.634z M293.024,198.634v-5.1h32.882c0.035,0,0.07,0,0.103,0h3.461
	v5.1c0,10.049-8.175,18.224-18.223,18.224C301.199,216.858,293.024,208.683,293.024,198.634z M348.029,198.634v-5.1h36.446v5.1
	c0,10.049-8.174,18.224-18.222,18.224C356.204,216.858,348.029,208.683,348.029,198.634z M228.739,88.246l77.234,87.289H151.505
	L228.739,88.246z M18,163.305l180.026-67.511l-70.555,79.741H18V163.305z M18,198.634v-5.1h36.446v5.1
	c0,10.049-8.175,18.224-18.223,18.224C26.175,216.858,18,208.683,18,198.634z M439.479,430.013v9.466H18v-9.466H439.479z
	 M421.257,216.858c-10.048,0-18.224-8.175-18.224-18.224v-5.1h36.446v5.1C439.479,208.683,431.305,216.858,421.257,216.858z"/>
<g>
</g>
<g>
</g>
<g>
</g>
<g>
</g>
<g>
</g>
<g>
</g>
<g>
</g>
<g>
</g>
<g>
</g>
<g>
</g>
<g>
</g>
<g>
</g>
<g>
</g>
<g>
</g>
<g>
</g>
</svg>
