<?xml version="1.0" encoding="iso-8859-1"?>
<!-- Generator: Adobe Illustrator 19.0.0, SVG Export Plug-In . SVG Version: 6.00 Build 0)  -->
<svg version="1.1" id="Capa_1" xmlns="http://www.w3.org/2000/svg" xmlns:xlink="http://www.w3.org/1999/xlink" x="0px" y="0px"
	 viewBox="0 0 476.702 476.702" style="enable-background:new 0 0 476.702 476.702;" xml:space="preserve">
<path id="XMLID_778_" d="M63.137,46.064c-3.515-3.515-3.515-9.213,0-12.728c3.515-3.515,9.213-3.515,12.728,0l7.048,7.047
	l7.048-7.047c3.515-3.515,9.213-3.515,12.728,0s3.515,9.213,0,12.728l-7.047,7.048l7.046,7.046c3.515,3.515,3.515,9.213,0,12.728
	c-1.757,1.757-4.061,2.636-6.364,2.636s-4.606-0.879-6.364-2.636l-7.046-7.046l-7.046,7.046c-3.515,3.515-9.213,3.515-12.728,0
	c-3.515-3.515-3.515-9.213,0-12.728l7.046-7.046L63.137,46.064z M120.66,103.588c1.758,1.758,4.061,2.637,6.365,2.637
	c2.303,0,4.606-0.878,6.363-2.635c3.515-3.514,3.516-9.213,0.001-12.728l-4.501-4.502c-3.515-3.515-9.213-3.516-12.728-0.001
	c-3.515,3.515-3.516,9.213-0.001,12.728L120.66,103.588z M38.8,106.225c2.303,0,4.606-0.879,6.364-2.636l4.502-4.502
	c3.515-3.515,3.515-9.213,0-12.728c-3.515-3.515-9.213-3.515-12.728,0l-4.502,4.502c-3.515,3.515-3.515,9.213,0,12.728
	C34.194,105.346,36.497,106.225,38.8,106.225z M219.068,98.067c2.303,0,4.607-0.879,6.364-2.636l5.786-5.786
	c3.515-3.515,3.514-9.213,0-12.728s-9.213-3.514-12.728,0l-5.786,5.786c-3.515,3.515-3.514,9.213,0,12.728
	C214.462,97.188,216.765,98.067,219.068,98.067z M156.47,138.939l-13.058,13.059c-3.515,3.515-3.515,9.213,0,12.728
	c3.515,3.515,9.212,3.514,12.728,0l13.058-13.058l13.058,13.058c1.757,1.758,4.06,2.636,6.364,2.636
	c2.303,0,4.607-0.879,6.364-2.636c3.515-3.515,3.515-9.213,0-12.728l-13.058-13.059l13.06-13.06c3.515-3.515,3.515-9.213,0-12.728
	c-3.515-3.515-9.213-3.514-12.728,0l-13.059,13.059l-13.06-13.059c-3.514-3.515-9.213-3.514-12.728,0
	c-3.515,3.515-3.515,9.213,0,12.728L156.47,138.939z M122.524,22.502c2.304,0,4.607-0.879,6.365-2.637l4.501-4.502
	c3.514-3.515,3.514-9.213-0.001-12.728c-3.515-3.514-9.214-3.514-12.728,0.001l-4.501,4.502c-3.514,3.515-3.514,9.213,0.001,12.728
	C117.918,21.624,120.221,22.502,122.524,22.502z M175.36,235.928l-76.939,13.565l2.307,13.085c0.863,4.895-2.405,9.563-7.3,10.426
	c-0.529,0.093-1.055,0.138-1.574,0.138c-4.286,0-8.083-3.072-8.853-7.438l-9.54-54.1c-0.863-4.895,2.405-9.563,7.3-10.426
	l85.803-15.13c3.538-0.625,7.109,0.917,9.083,3.919c1.974,3.002,1.973,6.891-0.002,9.892l-7.671,11.656l11.196,8.33
	c2.883,2.145,4.214,5.798,3.386,9.295S178.899,235.304,175.36,235.928z M151.678,221.826l-1.265-0.941
	c-3.827-2.847-4.768-8.185-2.146-12.169l0.867-1.316l-56.383,9.942l2.543,14.425L151.678,221.826z M36.939,19.866
	c1.757,1.757,4.061,2.636,6.364,2.636s4.606-0.879,6.364-2.636c3.515-3.515,3.515-9.213,0-12.728l-4.502-4.502
	c-3.515-3.515-9.213-3.515-12.728,0c-3.515,3.515-3.515,9.213,0,12.728L36.939,19.866z M332.305,389.034
	c-4.883-0.861-9.563,2.405-10.426,7.3c-0.093,0.526-0.138,1.049-0.139,1.565c-0.004,4.289,3.07,8.09,7.439,8.861l54.098,9.539
	c0.528,0.093,1.054,0.138,1.573,0.138c4.285,0,8.083-3.072,8.853-7.438c0.093-0.526,0.138-1.049,0.139-1.565
	c0.004-4.289-3.07-8.09-7.439-8.861L332.305,389.034z M403.243,354.902c0.093-0.526,0.138-1.049,0.139-1.565
	c0.004-4.289-3.069-8.091-7.438-8.861l-54.1-9.541c-4.893-0.86-9.563,2.405-10.427,7.3c-0.093,0.526-0.138,1.049-0.139,1.565
	c-0.004,4.289,3.069,8.091,7.438,8.861l54.101,9.541c0.528,0.093,1.054,0.138,1.573,0.138
	C398.675,362.341,402.473,359.269,403.243,354.902z M344.318,281.87l22.281-31.821c1.369-1.955,1.905-4.375,1.491-6.725
	l-19.079-108.199c-0.414-2.351-1.746-4.44-3.701-5.809l-31.819-22.281c-1.956-1.369-4.373-1.908-6.725-1.491l-90.337,15.928
	c-4.895,0.863-8.164,5.531-7.3,10.426s5.532,8.165,10.426,7.3l86.665-15.281l25.712,18.004l17.784,100.857l-18.005,25.713
	L68.555,314.894L42.84,296.889L25.056,196.032l18.004-25.713l79.233-13.971c4.895-0.863,8.164-5.531,7.3-10.426
	s-5.53-8.164-10.426-7.3l-82.904,14.618c-2.351,0.415-4.44,1.746-5.81,3.701L8.173,188.761c-1.369,1.955-1.905,4.375-1.491,6.725
	l19.079,108.2c0.415,2.351,1.746,4.44,3.701,5.81l31.822,22.281c1.523,1.066,3.328,1.627,5.162,1.627
	c0.521,0,1.043-0.045,1.563-0.137l270.499-47.697C340.859,285.156,342.949,283.825,344.318,281.87z M468.529,332.06l-22.28-31.822
	c-1.369-1.955-3.459-3.287-5.81-3.701l-62.557-11.029c-4.883-0.861-9.563,2.406-10.426,7.301s2.405,9.563,7.301,10.426
	l58.885,10.381l18.004,25.714l-17.783,100.857l-25.714,18.004l-263.157-46.402l-18.004-25.712l5.562-31.541
	c0.863-4.895-2.405-9.563-7.3-10.426c-4.894-0.864-9.563,2.405-10.426,7.3l-6.209,35.212c-0.415,2.351,0.122,4.77,1.491,6.725
	l22.281,31.82c1.369,1.956,3.458,3.287,5.809,3.701l270.5,47.697c0.52,0.092,1.042,0.137,1.563,0.137
	c1.834,0,3.639-0.561,5.162-1.627l31.821-22.281c1.955-1.369,3.287-3.459,3.701-5.81l19.078-108.199
	C470.434,336.434,469.898,334.015,468.529,332.06z M288.354,331.024c-0.828-3.496-3.657-6.165-7.195-6.789l-32.031-5.646
	c-4.897-0.864-9.563,2.406-10.426,7.301c-0.863,4.895,2.405,9.563,7.301,10.426l11.475,2.023l-1.264,0.94
	c-3.827,2.847-4.768,8.185-2.145,12.169l0.866,1.315l-56.383-9.942c0,0,1.18-6.958,1.18-7.474c0.004-4.289-3.069-8.091-7.438-8.861
	c-4.891-0.862-9.563,2.405-10.426,7.3l-6.476,36.72c-0.093,0.526-0.138,1.049-0.138,1.565c-0.004,4.289,3.069,8.091,7.438,8.861
	c0.529,0.093,1.054,0.138,1.573,0.138c4.285,0,8.083-3.072,8.853-7.438l2.308-13.085l76.941,13.567
	c3.53,0.624,7.108-0.916,9.083-3.919c1.974-3.002,1.973-6.891-0.003-9.893l-7.672-11.655l11.194-8.329
	C287.851,338.175,289.182,334.521,288.354,331.024z M398.473,381.95c0.093-0.526,0.138-1.049,0.139-1.565
	c0.004-4.289-3.069-8.091-7.438-8.861l-54.099-9.541c-4.893-0.863-9.563,2.405-10.427,7.3c-0.093,0.526-0.138,1.049-0.139,1.565
	c-0.004,4.289,3.069,8.091,7.438,8.861l54.099,9.541c0.529,0.093,1.055,0.138,1.574,0.138
	C393.906,389.388,397.703,386.316,398.473,381.95z M290.889,219.906l-54.102,9.54c-4.895,0.863-8.164,5.531-7.3,10.426
	c0.77,4.366,4.567,7.438,8.853,7.438c0.519,0,1.045-0.045,1.573-0.138l54.102-9.54c4.896-0.863,8.164-5.531,7.301-10.426
	C300.453,222.312,295.784,219.043,290.889,219.906z M286.118,192.856l-54.099,9.541c-4.895,0.863-8.164,5.531-7.3,10.426
	c0.77,4.367,4.567,7.438,8.853,7.438c0.519,0,1.045-0.045,1.574-0.138l54.1-9.541c4.895-0.863,8.163-5.531,7.3-10.426
	S291.021,191.995,286.118,192.856z M281.348,165.808l-54.101,9.54c-4.895,0.863-8.164,5.531-7.3,10.426
	c0.77,4.367,4.567,7.438,8.853,7.438c0.519,0,1.045-0.045,1.574-0.138l54.1-9.54c4.896-0.863,8.164-5.531,7.301-10.426
	C290.911,168.213,286.245,164.945,281.348,165.808z"/>
<g>
</g>
<g>
</g>
<g>
</g>
<g>
</g>
<g>
</g>
<g>
</g>
<g>
</g>
<g>
</g>
<g>
</g>
<g>
</g>
<g>
</g>
<g>
</g>
<g>
</g>
<g>
</g>
<g>
</g>
</svg>
